<svg width="32" height="32" viewBox="0 0 32 32" fill="none" xmlns="http://www.w3.org/2000/svg">
<path fill-rule="evenodd" clip-rule="evenodd" d="M16 32C24.8366 32 32 24.8366 32 16C32 7.16344 24.8366 0 16 0C7.16344 0 0 7.16344 0 16C0 24.8366 7.16344 32 16 32ZM16 5C14.8954 5 14 5.89543 14 7V14C14 15.1046 14.8954 16 16 16C17.1046 16 18 15.1046 18 14V7C18 5.89543 17.1046 5 16 5ZM13 27C15.2091 27 17 25.2091 17 23C17 20.7909 15.2091 19 13 19C10.7909 19 9 20.7909 9 23C9 25.2091 10.7909 27 13 27ZM25 14.5C25 15.8807 23.8807 17 22.5 17C21.1193 17 20 15.8807 20 14.5C20 13.1193 21.1193 12 22.5 12C23.8807 12 25 13.1193 25 14.5Z" fill="#5046E5"/>
</svg>
